<?xml version="1.0" encoding="UTF-8" standalone="no"?>
<!-- Created with Inkscape (http://www.inkscape.org/) -->

<svg
   xmlns:dc="http://purl.org/dc/elements/1.1/"
   xmlns:cc="http://creativecommons.org/ns#"
   xmlns:rdf="http://www.w3.org/1999/02/22-rdf-syntax-ns#"
   xmlns:svg="http://www.w3.org/2000/svg"
   xmlns="http://www.w3.org/2000/svg"
   xmlns:sodipodi="http://sodipodi.sourceforge.net/DTD/sodipodi-0.dtd"
   xmlns:inkscape="http://www.inkscape.org/namespaces/inkscape"
   width="529.16669mm"
   height="110.41944mm"
   viewBox="0 0 1875.0001 391.24999"
   id="svg2"
   version="1.1"
   inkscape:version="0.91 r13725"
   sodipodi:docname="snow.svg">
  <defs
     id="defs4" />
  <sodipodi:namedview
     id="base"
     pagecolor="#ffffff"
     bordercolor="#666666"
     borderopacity="1.0"
     inkscape:pageopacity="0.0"
     inkscape:pageshadow="2"
     inkscape:zoom="0.35"
     inkscape:cx="1729.9285"
     inkscape:cy="-534.94638"
     inkscape:document-units="px"
     inkscape:current-layer="layer1"
     showgrid="false"
     fit-margin-top="0"
     fit-margin-left="0"
     fit-margin-right="0"
     fit-margin-bottom="0"
     inkscape:window-width="2560"
     inkscape:window-height="1017"
     inkscape:window-x="-8"
     inkscape:window-y="-8"
     inkscape:window-maximized="1" />
  <metadata
     id="metadata7">
    <rdf:RDF>
      <cc:Work
         rdf:about="">
        <dc:format>image/svg+xml</dc:format>
        <dc:type
           rdf:resource="http://purl.org/dc/dcmitype/StillImage" />
        <dc:title></dc:title>
      </cc:Work>
    </rdf:RDF>
  </metadata>
  <g
     inkscape:label="Layer 1"
     inkscape:groupmode="layer"
     id="layer1"
     transform="translate(1790.6428,390.97703)">
    <g
       id="g3347"
       transform="translate(-105.71429,-528.57143)">
      <path
         style="fill:#5b5c5e"
         d="m -1684.9285,333.2194 0,-195.625 937.5,0 937.5,0 0,195.625 0,195.625 -937.5,0 -937.5,0 0,-195.625 z"
         id="path3353"
         inkscape:connector-curvature="0" />
      <path
         style="fill:#db1920"
         d="m -1684.9285,333.2194 0,-195.625 937.5,0 937.5,0 0,195.625 0,195.625 -937.5,0 -937.5,0 0,-195.625 z m 171.2411,95.59419 c 30.828,-8.7099 47.9801,-30.61673 45.8713,-58.58718 -1.2511,-16.59387 -9.8631,-29.43184 -25.4197,-37.89325 -8.8094,-4.79156 -21.9417,-8.92179 -46.481,-14.61861 -22.8265,-5.29921 -33.5832,-9.35581 -39.2941,-14.81879 -7.6888,-7.35485 -6.9161,-20.55282 1.7081,-29.17702 6.7706,-6.77059 17.5423,-9.87434 34.2696,-9.87434 21.0126,0 33.6472,5.17481 46.0221,18.8495 6.379,7.04896 7.2114,7.57085 10.8141,6.77956 2.1467,-0.4715 6.1228,-2.96882 8.8358,-5.54962 4.2351,-4.02874 4.9327,-5.44432 4.9327,-10.00948 0,-10.92662 -9.0674,-21.89136 -24.1725,-29.23063 -14.3257,-6.96054 -23.8144,-8.85814 -44.5775,-8.91484 -20.2636,-0.0553 -27.0635,1.19162 -40.8715,7.49496 -22.0207,10.05242 -33.7892,29.17859 -32.6475,53.05875 0.8656,18.10468 8.8378,30.10968 25.6016,38.55267 10.3602,5.21787 16.7722,7.20843 42.9174,13.32348 24.3745,5.70093 35.1102,9.2216 39.5893,12.98301 12.0135,10.08843 9.8815,27.51306 -4.4076,36.02462 -8.4887,5.05641 -15.9609,6.64273 -31.1807,6.61954 -22.5329,-0.0343 -37.1999,-5.70372 -51.9536,-20.0822 -4.8813,-4.75712 -9.6445,-8.64932 -10.5848,-8.64932 -3.6432,0 -10.6163,4.35295 -12.8555,8.02495 -11.3134,18.55264 15.7508,41.78807 56.1603,48.21542 11.6265,1.84925 36.9992,0.50884 47.7237,-2.52118 z m 181.8839,0.0648 c 27.7274,-7.13615 50.625,-25.08086 50.625,-39.6745 0,-10.01813 -6.9411,-17.84428 -15.8356,-17.85476 -3.1392,-0.004 -4.4921,0.85555 -6.5243,4.14368 -3.8533,6.23474 -16.2775,17.51533 -22.6401,20.55618 -13.5423,6.47217 -37.6152,8.64769 -52.3357,4.72966 -21.9693,-5.84732 -38.2573,-22.37081 -44.6234,-45.26854 -1.1775,-4.23526 -1.7986,-8.59264 -1.3801,-9.68306 0.6823,-1.77809 8.1203,-1.9826 72.1068,-1.9826 l 71.346,0 3.2479,-3.24789 c 3.2111,-3.2111 3.2396,-3.40577 2.5181,-17.1875 -1.3687,-26.1399 -9.425,-46.5095 -24.7952,-62.69201 -15.1025,-15.90062 -33.442,-23.97766 -57.3569,-25.261 -27.1113,-1.45487 -50.5434,6.96012 -69.6201,25.00206 -18.1882,17.20163 -28.4448,40.21352 -29.965,67.2304 -2.2099,39.27227 14.0512,73.0091 43.8559,90.98751 8.2509,4.97704 25.1768,11.02639 35.3653,12.63965 11.1219,1.76107 34.5131,0.52199 46.0114,-2.43728 z m -90.625,-117.09028 c 0,-1.81849 2.0574,-7.58411 4.5721,-12.8125 11.6899,-24.3053 37.2061,-38.07404 63.5307,-34.2816 17.6997,2.54989 31.9302,12.78896 39.1995,28.20466 3.7079,7.86318 6.7815,19.39444 5.6552,21.21681 -0.3328,0.53843 -25.8844,0.97897 -56.7813,0.97897 l -56.1762,0 0,-3.30634 z m 187.5,119.20803 c 1.7188,-0.85882 4.1085,-3.52239 5.3106,-5.91908 1.9638,-3.91562 2.1865,-9.1121 2.1948,-51.23261 0.01,-34.54666 0.4848,-49.99817 1.8173,-58.75 5.2255,-34.32198 18.565,-49.85779 41.6873,-48.55126 6.879,0.3887 9.7299,1.20868 13.9793,4.02083 4.5231,2.9932 5.7996,3.32225 8.3611,2.15518 3.5066,-1.59771 7.8447,-10.30729 7.8447,-15.74975 0,-6.91999 -4.2105,-13.83821 -10.7678,-17.69251 -5.6612,-3.32757 -6.9409,-3.55749 -19.8023,-3.55749 -12.7795,0 -14.3261,0.27303 -21.9132,3.86848 -4.9972,2.3681 -10.5725,6.36517 -14.375,10.30576 -3.4165,3.5405 -6.5446,6.4403 -6.9514,6.44401 -0.4068,0.004 -1.3882,-2.15788 -2.1809,-4.80353 -3.0519,-10.18656 -12.9478,-15.76058 -22.761,-12.82049 -3.5386,1.06021 -5.4266,2.48862 -6.2897,4.75872 -0.7811,2.0546 -1.1041,35.59725 -0.881,91.49541 0.2817,70.5885 0.6846,88.8349 2.0131,91.16586 3.2262,5.66068 15.7507,8.34183 22.7141,4.86247 z m 187.5711,0.34925 c 2.4453,-0.67932 5.9077,-2.78555 7.6942,-4.68053 2.2368,-2.37258 14.0059,-30.88575 37.7967,-91.57041 37.743,-96.27372 36.25846,-91.15263 27.90099,-96.2482 -7.42743,-4.52852 -17.77613,-2.88045 -23.17584,3.69084 -3.64515,4.43606 -6.93415,12.57863 -31.57945,78.18236 -15.6758,41.72786 -26.458,68.75 -27.4322,68.75 -0.962,0 -8.3154,-17.77809 -18.3544,-44.375 -36.2647,-96.07767 -36.7437,-97.2603 -41.6201,-102.75535 -4.243,-4.78119 -5.1614,-5.21681 -12.0101,-5.6965 -6.2597,-0.43842 -8.098,-0.0574 -11.7909,2.44363 -3.1354,2.1235 -4.4816,4.04438 -4.7513,6.77956 -0.2645,2.68216 10.0769,29.97825 34.7925,91.8351 19.3429,48.41021 36.0603,89.01143 37.1497,90.22495 3.7823,4.21311 16.4027,5.9135 25.3802,3.41955 z m 115.37871,-0.47218 c 7.8509,-3.28032 7.67519,-1.07329 7.67519,-96.40376 0,-47.4375 -0.43697,-87.81432 -0.97105,-89.72627 -1.35456,-4.84926 -7.69086,-8.38834 -15.02852,-8.39406 -7.41448,-0.006 -12.5704,2.53406 -14.4741,7.13001 -1.06579,2.57302 -1.36132,27.10269 -1.11358,92.42821 0.32965,86.9204 0.39363,88.98827 2.83725,91.7039 1.375,1.52806 3.625,3.23873 5,3.80151 3.91808,1.60364 11.55928,1.34716 16.07481,-0.53954 z m 137.71584,-0.1958 c 27.1144,-4.72836 48.95715,-19.24285 58.2513,-38.70796 4.89231,-10.24616 4.81223,-16.63805 -0.28114,-22.43907 -3.97096,-4.52269 -11.88631,-7.68997 -15.88477,-6.3562 -1.16931,0.39004 -4.34716,4.66202 -7.06188,9.49327 -11.54321,20.54296 -28.42862,29.927 -53.84991,29.927 -18.95139,0 -32.46212,-5.39119 -45.0445,-17.97409 -8.42996,-8.43032 -15.54676,-21.54336 -17.92354,-33.02494 -1.95763,-9.45692 -1.69705,-29.72473 0.49015,-38.12198 5.70583,-21.90612 21.97116,-39.68507 42.20347,-46.1308 9.32206,-2.96989 26.91426,-3.47104 37.18517,-1.05931 15.66778,3.67896 30.24288,15.30781 38.17066,30.45474 2.03739,3.89267 4.4677,7.37077 5.4007,7.72912 3.29543,1.2657 11.95647,-2.15056 16.19314,-6.38724 4.01491,-4.01491 4.25534,-4.71464 3.74295,-10.89334 -0.80364,-9.69088 -5.28109,-17.81753 -15.2861,-27.74456 -6.60462,-6.55314 -11.5388,-10.08901 -19.47135,-13.95328 -15.82807,-7.71052 -24.96794,-9.65512 -45.625,-9.7072 -20.79159,-0.0524 -28.21487,1.59822 -45.625,10.1452 -10.04424,4.93091 -13.61692,7.58051 -23.17369,17.18618 -9.39935,9.44744 -12.29022,13.35273 -17.197,23.2315 -8.83401,17.78543 -10.26175,24.51299 -10.21313,48.125 0.0396,19.2786 0.18852,20.42834 4.12636,31.875 16.4548,47.83134 60.14112,73.17988 110.87311,64.33296 z m 199.33435,-1.82515 c 25.35196,-6.22858 47.91768,-23.2619 50.73868,-38.29915 1.59023,-8.47669 -7.55912,-19.27222 -16.23603,-19.15731 -3.28312,0.0435 -4.76092,1.24724 -9.63867,7.85124 -6.62825,8.97401 -15.98865,15.89943 -26.73898,19.7832 -10.56454,3.81663 -34.6784,4.73738 -45.12052,1.72283 -22.81109,-6.58535 -39.06587,-23.07656 -44.84857,-45.50092 -1.13002,-4.38201 -1.75753,-8.74139 -1.39447,-9.6875 0.54969,-1.43246 12.59401,-1.7202 72.00615,-1.7202 l 71.34605,0 3.06817,-3.06819 c 2.77388,-2.77386 3.06819,-4.08226 3.06819,-13.64004 0,-56.07836 -38.85214,-94.59102 -92.47747,-91.6694 -42.23715,2.30116 -75.2002,29.55692 -86.47512,71.50263 -3.61705,13.4564 -3.88731,40.76067 -0.53201,53.75 11.91275,46.11767 49.13209,73.1254 98.2346,71.28269 8.56008,-0.32125 18.67299,-1.59543 25,-3.14988 z m -91.25,-116.63643 c 0,-6.06678 9.81499,-23.45052 17.46884,-30.93982 25.24339,-24.70065 68.20184,-22.45922 86.0522,4.4899 4.47187,6.75133 8.57682,16.9985 9.75102,24.34148 l 0.79747,4.98706 -57.03477,0 -57.03476,0 0,-2.87862 z"
         id="path3351"
         inkscape:connector-curvature="0" />
      <path
         style="fill:#ffffff;fill-opacity:1"
         d="m -1684.9285,333.2194 0,-195.625 937.50001,0 937.5,0 0,195.625 0,195.625 -937.5,0 -937.50001,0 0,-195.625 z m 171.2411,95.5941 c 30.828,-8.7099 47.9801,-30.6167 45.8713,-58.5871 -1.2511,-16.5939 -9.8631,-29.4319 -25.4197,-37.8933 -8.8094,-4.7915 -21.9417,-8.9218 -46.481,-14.6186 -22.8265,-5.2992 -33.5832,-9.3558 -39.2941,-14.8188 -7.6888,-7.3548 -6.9161,-20.5528 1.7081,-29.177 6.7706,-6.7706 17.5423,-9.8743 34.2696,-9.8743 21.0126,0 33.6472,5.1748 46.0221,18.8495 6.379,7.0489 7.2114,7.5708 10.8141,6.7795 2.1467,-0.4715 6.1228,-2.9688 8.8358,-5.5496 4.2351,-4.0287 4.9327,-5.4443 4.9327,-10.0095 0,-10.9266 -9.0674,-21.8913 -24.1725,-29.2306 -14.3257,-6.9606 -23.8144,-8.8582 -44.5775,-8.9149 -20.2636,-0.055 -27.0635,1.1917 -40.8715,7.495 -22.0207,10.0524 -33.7892,29.1786 -32.6475,53.0588 0.8656,18.1046 8.8378,30.1096 25.6016,38.5526 10.3602,5.2179 16.7722,7.2085 42.9174,13.3235 24.3745,5.7009 35.1102,9.2216 39.5893,12.983 12.0135,10.0884 9.8815,27.5131 -4.4076,36.0246 -8.4887,5.0564 -15.9609,6.6428 -31.1807,6.6196 -22.5329,-0.034 -37.1999,-5.7037 -51.9536,-20.0822 -4.8813,-4.7571 -9.6445,-8.6493 -10.5848,-8.6493 -3.6432,0 -10.6163,4.3529 -12.8555,8.0249 -11.3134,18.5526 15.7508,41.7881 56.1603,48.2154 11.6265,1.8493 36.9992,0.5089 47.7237,-2.5212 z m 181.8839,0.065 c 27.7274,-7.1361 50.625,-25.0808 50.625,-39.6745 0,-10.0181 -6.9411,-17.8442 -15.8356,-17.8547 -3.1392,0 -4.4921,0.8555 -6.5243,4.1437 -3.8533,6.2347 -16.2775,17.5153 -22.6401,20.5561 -13.5423,6.4722 -37.6152,8.6477 -52.3357,4.7297 -21.9693,-5.8473 -38.2573,-22.3708 -44.6234,-45.2685 -1.1775,-4.2353 -1.7986,-8.5927 -1.3801,-9.6831 0.6823,-1.7781 8.1203,-1.9826 72.1068,-1.9826 l 71.346,0 3.2479,-3.2479 c 3.2111,-3.2111 3.2396,-3.4058 2.5181,-17.1875 -1.3687,-26.1399 -9.425,-46.5095 -24.7952,-62.692 -15.1025,-15.9006 -33.442,-23.9777 -57.3569,-25.261 -27.1113,-1.4549 -50.5434,6.9601 -69.6201,25.0021 -18.1882,17.2016 -28.4448,40.2135 -29.965,67.2304 -2.2099,39.2722 14.0512,73.0091 43.8559,90.9875 8.2509,4.977 25.1768,11.0264 35.3653,12.6396 11.1219,1.7611 34.5131,0.522 46.0114,-2.4373 z m -90.625,-117.0902 c 0,-1.8185 2.0574,-7.5841 4.5721,-12.8125 11.6899,-24.3053 37.2061,-38.0741 63.5307,-34.2816 17.6997,2.5499 31.9302,12.7889 39.1995,28.2046 3.7079,7.8632 6.7815,19.3945 5.6552,21.2168 -0.3328,0.5385 -25.8844,0.979 -56.7813,0.979 l -56.1762,0 0,-3.3063 z m 187.5,119.208 c 1.7188,-0.8588 4.1085,-3.5224 5.3106,-5.9191 1.9638,-3.9156 2.1865,-9.1121 2.1948,-51.2326 0.01,-34.5467 0.4848,-49.9982 1.8173,-58.75 5.2255,-34.322 18.565,-49.8578 41.6873,-48.5513 6.879,0.3887 9.7299,1.2087 13.9793,4.0209 4.5231,2.9932 5.7996,3.3222 8.3611,2.1552 3.5066,-1.5978 7.8447,-10.3073 7.8447,-15.7498 0,-6.92 -4.2105,-13.8382 -10.7678,-17.6925 -5.6612,-3.3276 -6.9409,-3.5575 -19.8023,-3.5575 -12.7795,0 -14.3261,0.273 -21.9132,3.8685 -4.9972,2.3681 -10.5725,6.3652 -14.375,10.3057 -3.4165,3.5405 -6.5446,6.4403 -6.9514,6.4441 -0.4068,0 -1.3882,-2.1579 -2.1809,-4.8036 -3.0519,-10.1865 -12.9478,-15.7606 -22.761,-12.8205 -3.5386,1.0602 -5.4266,2.4887 -6.2897,4.7588 -0.7811,2.0546 -1.1041,35.5972 -0.881,91.4954 0.2817,70.5885 0.6846,88.8349 2.0131,91.1658 3.2262,5.6607 15.7507,8.3419 22.7141,4.8625 z m 187.5711,0.3492 c 2.4453,-0.6793 5.9077,-2.7855 7.6942,-4.6805 2.2368,-2.3726 14.0059,-30.8857 37.7967,-91.5704 37.74301,-96.2737 36.25847,-91.1526 27.901,-96.2482 -7.42743,-4.5285 -17.77613,-2.8804 -23.1758,3.6908 -3.6452,4.4361 -6.9342,12.5787 -31.5795,78.1824 -15.6758,41.7279 -26.458,68.75 -27.4322,68.75 -0.962,0 -8.3154,-17.7781 -18.3544,-44.375 -36.2647,-96.0777 -36.7437,-97.2603 -41.6201,-102.7553 -4.243,-4.7812 -5.1614,-5.2169 -12.0101,-5.6965 -6.2597,-0.4385 -8.098,-0.057 -11.7909,2.4436 -3.1354,2.1235 -4.4816,4.0444 -4.7513,6.7795 -0.2645,2.6822 10.0769,29.9783 34.7925,91.8351 19.3429,48.4103 36.0603,89.0115 37.1497,90.225 3.7823,4.2131 16.4027,5.9135 25.3802,3.4195 z m 115.37872,-0.4721 c 7.8509,-3.2804 7.67519,-1.0733 7.67519,-96.4038 0,-47.4375 -0.43697,-87.8143 -0.97105,-89.7263 -1.35456,-4.8492 -7.69086,-8.3883 -15.02852,-8.394 -7.41448,-0.01 -12.5704,2.534 -14.4741,7.13 -1.06579,2.573 -1.36132,27.1027 -1.11358,92.4282 0.32965,86.9204 0.39363,88.9883 2.83725,91.7039 1.375,1.5281 3.625,3.2387 5,3.8015 3.91808,1.6036 11.55928,1.3472 16.07481,-0.5395 z m 137.71584,-0.1958 c 27.1144,-4.7284 48.95715,-19.2429 58.2513,-38.708 4.89231,-10.2462 4.81223,-16.638 -0.28114,-22.4391 -3.97096,-4.5227 -11.88631,-7.6899 -15.88477,-6.3562 -1.16931,0.3901 -4.34716,4.6621 -7.06188,9.4933 -11.54321,20.543 -28.42862,29.927 -53.84991,29.927 -18.95139,0 -32.46212,-5.3912 -45.0445,-17.9741 -8.42996,-8.4303 -15.54676,-21.5433 -17.92354,-33.0249 -1.95763,-9.4569 -1.69705,-29.7248 0.49015,-38.122 5.70583,-21.9061 21.97116,-39.6851 42.20347,-46.1308 9.32206,-2.9699 26.91426,-3.471 37.18517,-1.0593 15.66778,3.6789 30.24288,15.3078 38.17066,30.4547 2.03739,3.8927 4.4677,7.3708 5.4007,7.7291 3.29543,1.2657 11.95647,-2.1505 16.19314,-6.3872 4.01491,-4.0149 4.25534,-4.7146 3.74295,-10.8933 -0.80364,-9.6909 -5.28109,-17.8176 -15.2861,-27.7446 -6.60462,-6.5531 -11.5388,-10.089 -19.47135,-13.9533 -15.82807,-7.7105 -24.96794,-9.6551 -45.625,-9.7072 -20.79159,-0.052 -28.21487,1.5982 -45.625,10.1452 -10.04424,4.9309 -13.61692,7.5805 -23.17369,17.1862 -9.39935,9.4474 -12.29022,13.3527 -17.197,23.2315 -8.83401,17.7854 -10.26175,24.513 -10.21313,48.125 0.0396,19.2786 0.18852,20.4283 4.12636,31.875 16.4548,47.8313 60.14112,73.1799 110.87311,64.333 z m 199.33435,-1.8252 c 25.35196,-6.2286 47.91768,-23.2619 50.73868,-38.2991 1.59023,-8.4767 -7.55912,-19.2723 -16.23603,-19.1573 -3.28312,0.043 -4.76092,1.2472 -9.63867,7.8512 -6.62825,8.974 -15.98865,15.8994 -26.73898,19.7832 -10.56454,3.8166 -34.6784,4.7374 -45.12052,1.7228 -22.81109,-6.5853 -39.06587,-23.0765 -44.84857,-45.5009 -1.13002,-4.382 -1.75753,-8.7414 -1.39447,-9.6875 0.54969,-1.4325 12.59401,-1.7202 72.00615,-1.7202 l 71.34605,0 3.06817,-3.0682 c 2.77388,-2.7738 3.06819,-4.0822 3.06819,-13.64 0,-56.0784 -38.85214,-94.591 -92.47747,-91.6694 -42.23715,2.3011 -75.2002,29.5569 -86.47512,71.5026 -3.61705,13.4564 -3.88731,40.7607 -0.53201,53.75 11.91275,46.1177 49.13209,73.1254 98.2346,71.2827 8.56008,-0.3213 18.67299,-1.5954 25,-3.1499 z m -91.25,-116.6364 c 0,-6.0668 9.81499,-23.4505 17.46884,-30.9398 25.24339,-24.7007 68.20184,-22.4593 86.0522,4.4899 4.47187,6.7513 8.57682,16.9985 9.75102,24.3414 l 0.79747,4.9871 -57.03477,0 -57.03476,0 0,-2.8786 z m 197.78869,119.0695 c 2.96487,-0.8235 5.92451,-2.9476 8.125,-5.8314 l 3.46131,-4.5361 0.625,-58.8492 c 0.62128,-58.4985 0.64193,-58.8764 3.4648,-63.4159 8.45734,-13.6004 25.15999,-22.3083 42.78945,-22.3083 21.084,0 34.21425,12.1242 37.46263,34.5924 0.6785,4.6929 1.24475,31.09 1.25837,58.6603 0.025,50.0141 0.0312,50.1372 2.86213,54.375 3.93387,5.8885 9.964,8.6184 19.03762,8.6184 9.11438,0 15.10538,-2.7325 19.10075,-8.7121 l 2.9005,-4.3411 -0.40487,-62.5339 c -0.3985,-61.5579 -0.45013,-62.6706 -3.31025,-71.284 -10.98988,-33.0975 -34.02726,-49.7188 -68.91113,-49.7188 -19.46606,0 -34.22286,5.084 -48.76095,16.7989 -4.1259,3.3247 -7.94831,6.0449 -8.49424,6.0449 -0.54592,0 -1.68471,-1.914 -2.53063,-4.2534 -4.0618,-11.2327 -12.40092,-16.225 -25.95845,-15.5404 -7.55043,0.3813 -9.64923,0.9777 -12.34177,3.5072 l -3.24423,3.0478 0.35263,86.9319 c 0.34218,84.3532 0.4268,87.0575 2.85264,91.165 4.51495,7.645 17.49363,10.9627 29.66369,7.5828 z m 282.83631,-2.3938 c 14.99563,-3.768 29.17675,-11.4312 40.19375,-21.7198 18.7685,-17.5277 27.38375,-35.27 30.51738,-62.8476 3.21949,-28.3339 -8.58263,-64.5901 -24.71675,-75.9296 -9.135,-6.4203 -22.873,-3.9739 -30.83751,5.4914 -5.50912,6.5472 -5.44487,9.0079 0.47225,18.0899 15.84263,24.3161 18.03913,50.8031 6.0745,73.251 -10.45375,19.6131 -28.322,29.4191 -51.74074,28.3948 -10.2655,-0.449 -12.59738,-1.0224 -20.9545,-5.1527 -20.02638,-9.8976 -32.13338,-30.7141 -32.13338,-55.2495 0,-15.1727 3.63613,-26.3516 13.29888,-40.8865 6.36037,-9.5674 6.47387,-11.8456 0.91925,-18.447 -7.469,-8.8764 -21.03363,-11.7361 -29.84313,-6.2915 -12.55575,7.7599 -23.0745,30.1805 -25.5105,54.375 -2.07662,20.6261 1.44513,41.4437 9.93875,58.75 13.575,27.6601 38.82275,45.4386 71.82175,50.5742 10.71063,1.6669 30.83288,0.5296 42.5,-2.4021 z m 154.941379,2.3171 c 10.495875,-2.914 11.32925,-4.5949 28.763875,-58.0162 8.745625,-26.7976 16.4022503,-49.248 17.0146253,-49.8897 0.612375,-0.6416 1.395125,-0.8849 1.7395,-0.5406 0.344375,0.3444 7.4395,21.9517 15.7669997,48.0164 8.3275,26.0647 16.157875,49.3705 17.40075,51.7906 3.805125,7.4088 8.680625,9.3899 23.122875,9.3955 13.805,0 20.03988,-2.0083 23.74963,-7.67 2.108,-3.2173 46.348736,-162.1615 47.680116,-171.3009 0.66612,-4.5723 0.34337,-5.6131 -2.58088,-8.3232 -7.9205,-7.3405 -22.798116,-10.5497 -30.483486,-6.5754 -5.343,2.763 -9.95738,7.9841 -11.70138,13.2398 -0.80012,2.4115 -7.12687,29.9379 -14.05937,61.1697 -6.9325,31.2319 -13.183255,56.9716 -13.89038,57.1995 -0.708875,0.2283 -7.659,-20.3262 -15.48875,-45.8068 -7.811625,-25.4215 -15.263625,-47.9652 -16.56,-50.097 -3.542875,-5.8256 -11.9061247,-9.0219 -23.4401247,-8.9584 -10.7908753,0.059 -15.4858753,1.4905 -20.4607503,6.2368 -3.539625,3.377 -5.368125,8.6008 -27.407125,78.3004 -3.68,11.6379 -7.271375,21.3533 -7.981125,21.5898 -0.76,0.2534 -6.779875,-24.0665 -14.648625,-59.1797 -9.885875,-44.1144 -14.165375,-60.9868 -16.462875,-64.9072 -4.2575,-7.2649 -12.061629,-11.0402 -21.246629,-10.2786 -7.86388,0.6522 -17.45825,5.2227 -21.04338,10.0246 l -2.53337,3.3932 23.48687,84.7241 c 12.91776,46.5983 24.555509,86.4923 25.861509,88.6535 2.234125,3.6971 7.285,6.9327 12.960125,8.3023 4.77275,1.1518 17.527,0.8719 22.441375,-0.4925 z M -221.21586,354.4889 c 1.89762,-0.9813 4.5105,-3.9184 5.80637,-6.5268 2.18513,-4.3985 2.356,-8.2334 2.356,-52.8675 0,-46.1261 -0.105,-48.3068 -2.5425,-52.5 -7.0065,-12.0564 -27.16363,-11.6134 -33.64438,0.7395 -2.4225,4.6173 -2.5835,7.3361 -2.93437,49.5338 -0.39975,48.086 0,52.1758 5.76312,58.6233 5.407,6.0514 16.69363,7.3943 25.19575,2.9977 z"
         id="path3349"
         inkscape:connector-curvature="0" />
    </g>
  </g>
</svg>
