<?xml version="1.0" encoding="UTF-8" standalone="no"?>
<!-- Created with Inkscape (http://www.inkscape.org/) -->

<svg
   xmlns:dc="http://purl.org/dc/elements/1.1/"
   xmlns:cc="http://creativecommons.org/ns#"
   xmlns:rdf="http://www.w3.org/1999/02/22-rdf-syntax-ns#"
   xmlns:svg="http://www.w3.org/2000/svg"
   xmlns="http://www.w3.org/2000/svg"
   xmlns:sodipodi="http://sodipodi.sourceforge.net/DTD/sodipodi-0.dtd"
   xmlns:inkscape="http://www.inkscape.org/namespaces/inkscape"
   width="297mm"
   height="210mm"
   viewBox="0 0 1052.3622 744.09448"
   id="svg2"
   version="1.1"
   inkscape:version="0.91 r13725"
   inkscape:export-filename="C:\Users\chauffourm\Documents\GitHub\wassup\assets\images\websites.png"
   inkscape:export-xdpi="9.4510326"
   inkscape:export-ydpi="9.4510326"
   sodipodi:docname="websites.svg">
  <defs
     id="defs4" />
  <sodipodi:namedview
     id="base"
     pagecolor="#ffffff"
     bordercolor="#666666"
     borderopacity="1.0"
     inkscape:pageopacity="0.0"
     inkscape:pageshadow="2"
     inkscape:zoom="1.1315767"
     inkscape:cx="526.1811"
     inkscape:cy="372.04724"
     inkscape:document-units="px"
     inkscape:current-layer="g4147"
     showgrid="false"
     inkscape:window-width="2560"
     inkscape:window-height="1017"
     inkscape:window-x="-8"
     inkscape:window-y="-8"
     inkscape:window-maximized="1" />
  <metadata
     id="metadata7">
    <rdf:RDF>
      <cc:Work
         rdf:about="">
        <dc:format>image/svg+xml</dc:format>
        <dc:type
           rdf:resource="http://purl.org/dc/dcmitype/StillImage" />
        <dc:title></dc:title>
      </cc:Work>
    </rdf:RDF>
  </metadata>
  <g
     inkscape:label="Layer 1"
     inkscape:groupmode="layer"
     id="layer1"
     transform="translate(0,-308.26772)">
    <g
       id="g4147"
       transform="translate(-428.60549,37.116352)">
      <path
         style="fill:#000000;fill-opacity:1;stroke:#ffffff;stroke-opacity:1;stroke-width:1;stroke-miterlimit:4;stroke-dasharray:none"
         d="m 954.70704,863.06371 c 1.5873,-1.58726 1.6825,-2.547 0.5082,-5.12424 l -1.4449,-3.17117 -115.3393,0.0191 c -63.4366,0.01 -116.0874,0.49343 -117.0019,1.07313 -0.9443,0.59865 -1.4843,2.61545 -1.25,4.66837 0.3992,3.49708 0.6763,3.63463 8.5376,4.23936 4.4688,0.34375 56.7053,0.54028 116.0811,0.43674 96.0483,-0.16749 108.1716,-0.40369 109.9092,-2.14133 z m -52.9361,-16.07355 c 1.5325,-2.18807 1.9458,-6.43595 1.9458,-20 0,-15.5552 -0.2419,-17.4638 -2.5,-19.72186 -2.4384,-2.43846 -4.1666,-2.5 -70.214,-2.5 -61.2545,0 -67.9322,0.19735 -70,2.06874 -2.0248,1.83239 -2.286,4.25305 -2.286,21.18789 0,16.89001 0.2551,19.26769 2.1875,20.39324 1.4113,0.82198 26.4481,1.28759 70.5542,1.31212 l 68.3666,0.038 z m 220.91476,-53.67237 c 8.4835,-3.97694 17.2411,-11.75377 21.587,-19.16955 7.2433,-12.35973 6.944,-3.59568 6.944,-203.33104 0,-131.05005 -0.4013,-185.31729 -1.4055,-190.04987 -4.2405,-19.98595 -19.4952,-34.18889 -40.1278,-37.36128 -4.9097,-0.7549 -110.66336,-1.07616 -282.84166,-0.85923 -260.11,0.32772 -275.3045,0.46678 -280.625,2.5683 -13.5682,5.35932 -24.2938,16.08494 -29.6531,29.65318 -2.0947,5.30311 -2.2219,16.4977 -2.2219,195.625 l 0,190 3.9228,8.27923 c 6.499,13.71652 16.3529,22.64643 29.5598,26.78793 4.3099,1.35153 56.3952,1.60918 286.5174,1.41731 L 1115.5917,796.6433 Z M 548.85654,725.56165 c -1.0434,-1.25721 -1.3306,-46.3484 -1.0906,-171.22609 l 0.3258,-169.51945 4.0866,-4.08641 4.0865,-4.0864 276.202,0 276.20186,0 4.0865,4.08645 4.0865,4.08645 0,170.91355 0,170.91355 -59.6037,0.32458 -59.60376,0.32456 -3.0276,-2.82456 c -1.6652,-1.55353 -14.4617,-14.91833 -28.4366,-29.69958 -13.9749,-14.78125 -29.2798,-30.86181 -34.0108,-35.73458 l -8.6018,-8.85958 8.2404,-10.92575 c 10.1283,-13.42888 19.4008,-32.33014 23.9765,-48.87424 3.2253,-11.66179 3.4516,-14.08048 3.4482,-36.85585 0,-22.41306 -0.2685,-25.35152 -3.2937,-36.50726 -13.9435,-51.41805 -52.9663,-90.01742 -104.7121,-103.57576 -13.3171,-3.48933 -42.8423,-4.75251 -57.2761,-2.45045 -45.426,7.24503 -85.1817,36.52371 -106.3372,78.31373 -28.3097,55.92215 -15.6942,125.84863 30.4851,168.97495 37.8075,35.30805 90.67,47.54885 140.9501,32.63828 4.6457,-1.3777 14.7108,-5.64069 22.3668,-9.4733 13.0249,-6.52024 14.0041,-6.81818 15.2271,-4.63278 0.7189,1.28459 11.0722,12.61054 23.0073,25.16878 11.9351,12.55823 21.358,23.38681 20.9398,24.06348 -0.4936,0.79859 -69.1097,1.23033 -195.5336,1.23033 -163.0674,0 -195.0037,-0.27781 -196.1895,-1.70665 z m 246.5372,-52.55459 c -40.3623,-7.72154 -74.2032,-34.34621 -90.057,-70.85322 -7.5306,-17.34105 -9.4838,-27.10023 -9.6087,-48.01054 -0.093,-15.58496 0.3631,-20.62306 2.7026,-29.84624 11.9545,-47.12831 50.972,-83.20665 98.2297,-90.83014 13.6557,-2.20291 40.1214,-0.93065 51.9723,2.49842 41.0862,11.88827 73.2488,44.05091 85.1371,85.13705 3.4291,11.85092 4.7013,38.3166 2.4984,51.97235 -7.5409,46.74571 -42.9776,85.54857 -89.4264,97.92102 -12.944,3.44786 -38.6796,4.45398 -51.448,2.0113 z m 0.2635,-60.84469 c 0.4609,-0.74576 4.291,-12.37368 8.5113,-25.83983 4.2203,-13.46617 8.3209,-24.69689 9.1125,-24.95718 0.8917,-0.29317 4.6968,9.42031 10,25.52734 l 8.5607,26.0006 17.0217,0.3467 17.0217,0.34669 1.351,-3.47169 c 4.6125,-11.85286 29.0506,-92.1115 28.4911,-93.56949 -0.5344,-1.3926 -3.7338,-1.77307 -14.7837,-1.75807 -7.756,0.01 -14.7358,0.4324 -15.5106,0.9375 -1.1159,0.72738 -10.7008,34.03512 -14.9259,51.86767 -1.0392,4.38624 -2.6034,5.36496 -4.0326,2.5232 -0.6147,-1.22239 -4.3749,-13.47251 -8.3559,-27.22251 -3.9809,-13.75 -7.7938,-25.70313 -8.473,-26.5625 -1.8613,-2.35505 -28.8688,-2.16966 -30.8451,0.21174 -0.8099,0.97582 -5.0535,13.33332 -9.4303,27.4611 -8.495,27.4212 -9.1324,29.05627 -10.6943,27.43607 -0.5549,-0.57552 -3.9513,-12.85891 -7.5476,-27.29641 -3.5963,-14.4375 -7.0852,-26.95313 -7.7532,-27.8125 -0.8507,-1.09455 -5.6726,-1.5625 -16.1006,-1.5625 -16.494,0 -17.1632,0.34296 -15.0227,7.69886 6.014,20.66643 27.8674,87.85358 29.0318,89.25654 1.8629,2.24469 33.0118,2.6422 34.3737,0.43867 z"
         id="path4149"
         inkscape:connector-curvature="0"
         sodipodi:nodetypes="cscsccsscccscscscsccssscssssscssscscscccccccccccssscsscssssssssscscsssssssssscscscccssccscsscscscsccc" />
    </g>
  </g>
</svg>
